<svg aria-hidden="true" style="width:0;height:0;position:absolute;overflow:hidden" xmlns="http://www.w3.org/2000/svg"><defs><symbol id="up-arrow" viewBox="0 0 32 32"><path d="M16 0C7.127 0 0 7.127 0 16s7.127 16 16 16 16-7.127 16-16S24.873 0 16 0zm0 25.455c-5.236 0-9.455-4.218-9.455-9.455S10.763 6.545 16 6.545s9.455 4.218 9.455 9.455-4.218 9.455-9.455 9.455z"/><path d="M16 9.455c-3.636 0-6.545 2.909-6.545 6.545s2.909 6.545 6.545 6.545 6.545-2.909 6.545-6.545S19.636 9.455 16 9.455zm4 8.654-1.236.727c-.073.073-.218.073-.364.073a.661.661 0 0 1-.509-.218l-1.309-1.527a.682.682 0 0 0-1.091 0l-1.309 1.527a.661.661 0 0 1-.509.218c-.145 0-.291 0-.364-.073l-1.236-.727a.765.765 0 0 1-.364-.655c0-.145 0-.218.073-.364l.073-.073 3.636-4.364c.145-.145.364-.291.582-.291s.436.073.582.291l3.636 4.364.073.073c.073.145.073.218.073.364-.073.218-.218.509-.436.655z"/></symbol></defs></svg>