<svg xmlns="http://www.w3.org/2000/svg" aria-hidden="true" style="width:0;height:0;position:absolute;overflow:hidden"><defs><symbol id="icon-location" viewBox="0 0 22 32"><path fill="#fff" d="M11.2 0C5.024 0 0 4.99 0 11.123 0 18.832 11.211 32 11.211 32S22.4 18.453 22.4 11.123C22.4 4.99 17.376 0 11.2 0zm3.379 14.38c-.932.925-2.155 1.388-3.379 1.388s-2.448-.463-3.379-1.388a4.729 4.729 0 0 1 0-6.712c.902-.896 2.103-1.39 3.379-1.39s2.477.494 3.379 1.39a4.729 4.729 0 0 1 0 6.712z" style="fill:var(--color1,#fff)"/></symbol></defs></svg>