<svg xmlns="http://www.w3.org/2000/svg" width="229" height="193" fill="none"><g filter="url('#a')"><path fill="url('#b')" fill-opacity=".03" d="M0 193c30.073 0 59.851-4.992 87.635-14.691 27.783-9.699 53.028-23.916 74.292-41.837 21.265-17.922 38.133-39.198 49.641-62.614C223.077 50.442 229 25.345 229 0H0v193Z"/></g><path fill="#fff" d="M58.42 94.049c-1.277-3.656-3.903-5.484-7.88-5.485h-1.255v22.549h1.255c3.073 0 5.342-1.248 6.806-3.745 1.233-2.131 1.85-4.842 1.85-8.135-.003-1.958-.262-3.686-.776-5.184Zm-21.536.27c1.278 3.656 3.904 5.483 7.879 5.483h1.255V77.253h-1.255c-3.074 0-5.343 1.248-6.807 3.745-1.23 2.13-1.844 4.842-1.845 8.135 0 1.956.258 3.684.773 5.186ZM16 41.24h16.698v5.972H21.994V50.2h8.892v5.666h-8.892v3.02h10.704v5.972H16V41.24Zm25.095-.028H62.7L51.897 65.338 41.096 41.212Zm10.803 21.14 8.925-19.884H43.005l8.892 19.884ZM71.329 41.24h16.698v5.972H77.323V50.2h8.892v5.666h-8.892v3.02h10.704v5.972H71.329V41.24Zm26.973 23.583v-23.61h1.285l16.006 16.05v-16.05h1.218v23.616l-18.509-.005Zm35.998.034V47.212h-8.662V41.24h18.509v5.972h-8.662v17.645H134.3ZM25.846 81.96c1.45 0 2.602.226 3.458.678a5.815 5.815 0 0 1 2.382 2.23 6.06 6.06 0 0 1 .846 3.2 5.8 5.8 0 0 1-.856 3.07 6.156 6.156 0 0 1-2.339 2.223 6.52 6.52 0 0 1 2.997 2.24 5.78 5.78 0 0 1 1.219 3.596 6.263 6.263 0 0 1-.873 3.241 6.444 6.444 0 0 1-2.322 2.324 6.024 6.024 0 0 1-1.614.611c-.592.136-1.383.203-2.37.203H16.228V81.96h9.617Zm38.616 21.903c-1.724-1.55-2.574-3.874-2.552-6.973h5.368c-.022 1.29.351 2.273 1.12 2.952.768.679 1.844 1.018 3.227 1.018 1.142 0 2.042-.192 2.7-.577.66-.385.989-.973.989-1.764 0-.657-.335-1.132-1.004-1.426a9.201 9.201 0 0 0-1.993-.627c-.659-.125-1.065-.2-1.219-.227a25.804 25.804 0 0 1-4.38-1.244 7.636 7.636 0 0 1-3.096-2.205c-.834-.996-1.251-2.308-1.251-3.937 0-1.628.417-3.014 1.251-4.156.835-1.143 1.949-1.997 3.343-2.562a12.022 12.022 0 0 1 4.561-.849c1.999 0 3.728.385 5.188 1.154 1.46.77 2.607 1.934 3.441 3.495a5.98 5.98 0 0 1 .758 2.155c.086.67.13 1.344.132 2.019h-5.369c0-1.222-.318-2.12-.955-2.698-.637-.576-1.625-.865-2.964-.865-1.076 0-1.91.192-2.503.577-.593.384-.89.905-.89 1.56 0 .725.396 1.256 1.186 1.596.971.395 1.974.702 2.998.916 1.975.407 3.518.797 4.627 1.17a6.469 6.469 0 0 1 2.882 1.986c.812.95 1.218 2.284 1.218 4.004 0 1.628-.439 3.031-1.317 4.207-.879 1.177-2.037 2.076-3.475 2.698-1.477.63-3.062.947-4.66.933-3.184-.004-5.637-.78-7.361-2.33Zm30.316 1.713V87.932h-8.662V81.96h18.51v5.972h-8.662v17.644h-1.186ZM110.85 81.96h16.698v5.972h-10.704v2.986h8.893v5.666h-8.893v3.02h10.704v5.972H110.85V81.96Zm41.431 23.616h-17.62V81.96h8.925c1.91 0 3.469.35 4.677 1.051a7.214 7.214 0 0 1 2.766 2.783 7.838 7.838 0 0 1 .988 3.902 7.63 7.63 0 0 1-1.581 4.734 7.435 7.435 0 0 1-3.985 2.765l5.83 8.381Zm-16.402-21.547v12.182h8.465l-8.465-12.182Zm0 20.292h14.096l-4.808-6.888-1.021.034h-8.267v6.854Zm.857-21.106 8.958 12.894a6.274 6.274 0 0 0 3.656-2.273 6.416 6.416 0 0 0 1.449-4.14 6.62 6.62 0 0 0-.89-3.393 5.909 5.909 0 0 0-2.503-2.341c-.966-.498-2.228-.747-3.787-.747h-6.883Z"/><defs><linearGradient id="b" x1="269.924" x2="-48.139" y1="-72.65" y2="290.923" gradientUnits="userSpaceOnUse"><stop stop-color="#C4C4C4"/><stop offset="1" stop-color="#C4C4C4" stop-opacity="0"/></linearGradient><filter id="a" width="289" height="253" x="-30" y="-30" color-interpolation-filters="sRGB" filterUnits="userSpaceOnUse"><feFlood flood-opacity="0" result="BackgroundImageFix"/><feGaussianBlur in="BackgroundImageFix" stdDeviation="15"/><feComposite in2="SourceAlpha" operator="in" result="effect1_backgroundBlur_12708_46"/><feBlend in="SourceGraphic" in2="effect1_backgroundBlur_12708_46" result="shape"/></filter></defs></svg>