<svg width="179" height="151" viewBox="0 0 179 151" fill="none" xmlns="http://www.w3.org/2000/svg">
<g filter="url(#filter0_b_12708_257)">
<path d="M-0.500013 151C23.0723 151 46.4137 147.094 68.1917 139.506C89.9696 131.917 109.758 120.795 126.426 106.773C143.094 92.7515 156.316 76.1054 165.336 57.7852C174.357 39.465 179 19.8296 179 -1.52588e-05L-0.500007 7.41259e-06L-0.500013 151Z" fill="url(#paint0_linear_12708_257)" fill-opacity="0.03"/>
</g>
<path d="M63.1266 44.9284C62.19 43.4216 60.2626 42.668 57.3443 42.6677H56.4236V51.9622H57.3443C59.5999 51.9622 61.2647 51.4476 62.3388 50.4186C63.2437 49.5402 63.6961 48.4225 63.6961 47.0655C63.694 46.2584 63.5041 45.546 63.1266 44.9284Z" fill="white"/>
<path d="M47.3241 45.0398C48.2617 46.5466 50.1889 47.3 53.1055 47.3H54.0263V38.0056H53.1055C50.85 38.0056 49.1852 38.5201 48.1111 39.5492C47.2089 40.4272 46.7575 41.5449 46.757 42.9022C46.757 43.7085 46.946 44.421 47.3241 45.0398Z" fill="white"/>
<path d="M32 23.1622H44.2525V25.6238H36.3983V26.8546H42.9233V29.1903H36.3983V30.4351H44.2525V32.8967H32V23.1622Z" fill="white"/>
<path d="M50.4142 23.15H66.2675L58.3408 33.0944L50.4142 23.15ZM58.3408 31.8636L64.89 23.6675H51.8158L58.3408 31.8636Z" fill="white"/>
<path d="M72.5991 23.1617H84.8516V25.6233H76.9975V26.8541H83.5225V29.1899H76.9975V30.4346H84.8516V32.8963H72.5991V23.1617Z" fill="white"/>
<path d="M92.3915 32.8823V23.15H93.334L105.079 29.7656V23.15H105.973V32.8846L92.3915 32.8823Z" fill="white"/>
<path d="M118.806 32.8963V25.6233H112.45V23.1617H126.032V25.6233H119.676V32.8963H118.806Z" fill="white"/>
<path d="M39.225 39.9455C40.2883 39.9455 41.1342 40.0387 41.7625 40.2252C42.4844 40.429 43.0908 40.7479 43.5103 41.1443C43.9299 41.5408 44.1451 41.9983 44.1308 42.4631C44.1352 42.9111 43.9171 43.3505 43.5025 43.7288C43.0811 44.1169 42.4889 44.4331 41.7867 44.645C42.6587 44.8229 43.4227 45.1436 43.9858 45.5681C44.5703 45.9878 44.8862 46.5115 44.88 47.0506C44.8862 47.5217 44.6643 47.9844 44.2396 48.3863C43.8241 48.7855 43.2372 49.1156 42.5358 49.3444C42.1635 49.4601 41.7649 49.5449 41.3517 49.5962C40.9167 49.6521 40.3367 49.6801 39.6117 49.6801H32.1683V39.9455H39.225Z" fill="white"/>
<path d="M67.5604 48.9737C66.2956 48.335 65.6713 47.3769 65.6874 46.0995H69.6266C69.6105 46.631 69.8844 47.0366 70.4483 47.3163C71.0122 47.5961 71.8016 47.7359 72.8166 47.7359C73.6544 47.7359 74.3149 47.6567 74.7983 47.4982C75.2816 47.3396 75.5233 47.0972 75.5233 46.7709C75.5233 46.5005 75.2776 46.3046 74.7862 46.1834C74.3169 46.0661 73.8265 45.9793 73.3241 45.9247C72.8408 45.8734 72.5427 45.8423 72.4299 45.8314C71.3351 45.7142 70.2597 45.5427 69.2158 45.3186C68.3393 45.13 67.5584 44.8175 66.9441 44.4095C66.3319 43.9992 66.0258 43.4584 66.0258 42.787C66.0258 42.1157 66.3319 41.5446 66.9441 41.0737C67.5563 40.6028 68.374 40.2508 69.397 40.0177C70.4646 39.7799 71.6003 39.6613 72.7441 39.6681C74.2102 39.6681 75.479 39.8266 76.5503 40.1436C77.6217 40.4606 78.4635 40.9408 79.0758 41.5842C79.3599 41.8563 79.5487 42.1581 79.6316 42.4724C79.6951 42.7482 79.7273 43.0262 79.7283 43.3046H75.7891C75.7891 42.801 75.5555 42.4304 75.0883 42.1926C74.621 41.9549 73.896 41.836 72.9133 41.836C72.1238 41.836 71.5116 41.9152 71.0766 42.0737C70.6416 42.2323 70.4241 42.4467 70.4241 42.7171C70.4241 43.0155 70.7141 43.2346 71.2941 43.3745C72.0066 43.5374 72.7425 43.6638 73.4933 43.7521C74.9433 43.92 76.0751 44.0808 76.8887 44.2346C77.7089 44.3911 78.4399 44.674 79.0033 45.0529C79.5994 45.4445 79.8974 45.9946 79.8974 46.7033C79.8974 47.3746 79.5752 47.9527 78.9308 48.4376C78.2863 48.9225 77.4365 49.2931 76.3812 49.5495C75.2974 49.8092 74.1345 49.94 72.9616 49.9341C70.6255 49.9326 68.8251 49.6125 67.5604 48.9737Z" fill="white"/>
<path d="M89.8058 49.6801V42.4071H83.45V39.9455H97.0316V42.4071H90.6758V49.6801H89.8058Z" fill="white"/>
<path d="M101.599 39.9455H113.852V42.4071H105.997V43.6379H112.522V45.9737H105.997V47.2185H113.852V49.6801H101.599V39.9455Z" fill="white"/>
<path d="M132 49.6801H119.071V39.9455H125.62C127.022 39.9455 128.166 40.09 129.052 40.3791C129.898 40.6456 130.601 41.0425 131.082 41.526C131.567 42.0151 131.817 42.5704 131.807 43.1344C131.818 43.8425 131.409 44.5314 130.647 45.0855C129.916 45.6421 128.888 46.043 127.722 46.2254L132 49.6801ZM119.965 40.7987V45.8198H126.176L119.965 40.7987ZM119.965 49.1626H130.308L126.78 46.3233L126.031 46.3373H119.965V49.1626ZM120.593 40.463L127.167 45.7779C128.222 45.6557 129.171 45.3243 129.849 44.8408C130.547 44.3646 130.924 43.7587 130.912 43.1344C130.922 42.6423 130.696 42.1582 130.26 41.7358C129.825 41.3164 129.186 40.9806 128.423 40.7707C127.714 40.5656 126.788 40.463 125.644 40.463H120.593Z" fill="white"/>
<defs>
<filter id="filter0_b_12708_257" x="-30.5" y="-30" width="239.5" height="211" filterUnits="userSpaceOnUse" color-interpolation-filters="sRGB">
<feFlood flood-opacity="0" result="BackgroundImageFix"/>
<feGaussianBlur in="BackgroundImageFix" stdDeviation="15"/>
<feComposite in2="SourceAlpha" operator="in" result="effect1_backgroundBlur_12708_257"/>
<feBlend mode="normal" in="SourceGraphic" in2="effect1_backgroundBlur_12708_257" result="shape"/>
</filter>
<linearGradient id="paint0_linear_12708_257" x1="211.078" y1="-56.8403" x2="-37.7072" y2="228.073" gradientUnits="userSpaceOnUse">
<stop stop-color="#C4C4C4"/>
<stop offset="1" stop-color="#C4C4C4" stop-opacity="0"/>
</linearGradient>
</defs>
</svg>
